# xmcd
#
# Track frame offsets: 
#        150
#        12210
#        23591
#        37656
#        50728
#        65410
#        77343
#        87244
#        98776
#        108771
#        121205
#        133129
#        143964
#        158471
#        173040
#        185815
#        199562
#        212634
#        224154
#        238336
#        253624
#        265486
#        279250
#        291617
#        305624
#
# Disc length: 4252 seconds
#
# Revision: 0
# Processed by: cddbd v1.5.2PL0 Copyright (c) Steve Scherf et al.
# Submitted via: ExactAudioCopy v1.0b1
#
DISCID=6a109a19
DTITLE=Various Artist - History Of Rhythm And Blues 1942-52 [CD4]
DYEAR=2018
DGENRE=R&B
TTITLE0=Ella Fitzgerald and Louis Jordan - Stone Cold Dead In The Market
TTITLE0=(1946)
TTITLE1=Edgar Hayes - Fat Meat 'n' Greens (1949)
TTITLE2=Dave Bartholomew - Country Boy (1950)
TTITLE3=Professor Longhair - Mardi Gras In New Orleans (1949)
TTITLE4=Clarence Garlow - Bon Ton Roula (1950)
TTITLE5=Fats Domino - Fat Man (1950)
TTITLE6=Archibald - Stack-A-Lee (1950)
TTITLE7=Lloyd Price - Lawdy Miss Clawdy (1952)
TTITLE8=Fats Domino - Goin' Home (1952)
TTITLE9=Johnnie Otis - Mambo Boogie (1951)
TTITLE10=B.B. King - Don't You Want A Man Like Me (1951)
TTITLE11=Lloyd Glenn - Chica Boo (1950)
TTITLE12=Clovers - Don't You Know I Love You So (1951)
TTITLE13=Ruth Brown - 5-10-15 Hours (1952)
TTITLE14=Billy Wright - Hey Little Girl (1951)
TTITLE15=Little Esther and Mel Walker - Mistrustin' Blues (1950)
TTITLE16=Percy Mayfield - Please Send Me Someone To Love (1950)
TTITLE17=Lowell Fulson - Everyday I Have The Blues (1950)
TTITLE18=Jimmy Nelson - T-99 Blues (1951)
TTITLE19=Big Joe Turner - Chains Of Love (1951)
TTITLE20=Five Keys - Too Late Baby (1951)
TTITLE21=Dominoes - Do Something For Me (1951)
TTITLE22=Royales - Give Me One More Chance (1952)
TTITLE23=Ray Charles - Misery In My Heart (1953)
TTITLE24=Mary Deloatch - Lord's Gospel Train (1951)
EXTD=
EXTT0=
EXTT1=
EXTT2=
EXTT3=
EXTT4=
EXTT5=
EXTT6=
EXTT7=
EXTT8=
EXTT9=
EXTT10=
EXTT11=
EXTT12=
EXTT13=
EXTT14=
EXTT15=
EXTT16=
EXTT17=
EXTT18=
EXTT19=
EXTT20=
EXTT21=
EXTT22=
EXTT23=
EXTT24=
PLAYORDER=
